<svg width="48" height="58" viewBox="0 0 48 58" fill="none" xmlns="http://www.w3.org/2000/svg">
<path d="M6 51V37C6 34.2333 6.975 31.875 8.925 29.925C10.875 27.975 13.2333 27 16 27H18V11C18 9.9 18.3917 8.95833 19.175 8.175C19.9583 7.39167 20.9 7 22 7H26C27.1 7 28.0417 7.39167 28.825 8.175C29.6083 8.95833 30 9.9 30 11V27H32C34.7667 27 37.125 27.975 39.075 29.925C41.025 31.875 42 34.2333 42 37V51H6ZM10 47H14V41C14 40.4333 14.1917 39.9583 14.575 39.575C14.9583 39.1917 15.4333 39 16 39C16.5667 39 17.0417 39.1917 17.425 39.575C17.8083 39.9583 18 40.4333 18 41V47H22V41C22 40.4333 22.1917 39.9583 22.575 39.575C22.9583 39.1917 23.4333 39 24 39C24.5667 39 25.0417 39.1917 25.425 39.575C25.8083 39.9583 26 40.4333 26 41V47H30V41C30 40.4333 30.1917 39.9583 30.575 39.575C30.9583 39.1917 31.4333 39 32 39C32.5667 39 33.0417 39.1917 33.425 39.575C33.8083 39.9583 34 40.4333 34 41V47H38V37C38 35.3333 37.4167 33.9167 36.25 32.75C35.0833 31.5833 33.6667 31 32 31H16C14.3333 31 12.9167 31.5833 11.75 32.75C10.5833 33.9167 10 35.3333 10 37V47ZM26 27V11H22V27H26Z" fill="#72A5A5"/>
</svg>
