<svg width="48" height="58" viewBox="0 0 48 58" fill="none" xmlns="http://www.w3.org/2000/svg">
<path d="M22 49C20.9 49 19.9583 48.6083 19.175 47.825C18.3917 47.0417 18 46.1 18 45V37H12C10.9 37 9.95833 36.6083 9.175 35.825C8.39167 35.0417 8 34.1 8 33V19C8 16.8 8.78333 14.9167 10.35 13.35C11.9167 11.7833 13.8 11 16 11H40V33C40 34.1 39.6083 35.0417 38.825 35.825C38.0417 36.6083 37.1 37 36 37H30V45C30 46.1 29.6083 47.0417 28.825 47.825C28.0417 48.6083 27.1 49 26 49H22ZM12 25H36V15H34V23H30V15H28V19H24V15H16C14.9 15 13.9583 15.3917 13.175 16.175C12.3917 16.9583 12 17.9 12 19V25ZM12 33H36V29H12V33Z" fill="#72A5A5"/>
</svg>
