<svg width="48" height="58" viewBox="0 0 48 58" fill="none" xmlns="http://www.w3.org/2000/svg">
<path d="M38.55 23.35L31.5 16.3L27.25 20.5L23 16.3L28.65 10.6C29.05 10.2 29.5 9.90832 30 9.72498C30.5 9.54165 31 9.44999 31.5 9.44999C32.0333 9.44999 32.5417 9.54165 33.025 9.72498C33.5083 9.90832 33.9333 10.2 34.3 10.6L38.55 14.85C39.15 15.4167 39.5917 16.075 39.875 16.825C40.1583 17.575 40.3 18.3333 40.3 19.1C40.3 19.8667 40.1583 20.6167 39.875 21.35C39.5917 22.0833 39.15 22.75 38.55 23.35ZM11 32.55C10.4 31.95 10.1 31.2417 10.1 30.425C10.1 29.6083 10.4 28.9 11 28.3L15.9 23.35L20.15 27.6L15.2 32.55C14.6333 33.15 13.9417 33.45 13.125 33.45C12.3083 33.45 11.6 33.15 11 32.55ZM8.85 47.4C8.48333 47 8.2 46.5583 8 46.075C7.8 45.5917 7.7 45.0833 7.7 44.55C7.7 44.0167 7.79166 43.5083 7.975 43.025C8.15833 42.5417 8.45 42.1 8.85 41.7L23 27.6L16.65 21.2C16.05 20.6333 15.75 19.9417 15.75 19.125C15.75 18.3083 16.05 17.6 16.65 17C17.2167 16.4 17.9167 16.1 18.75 16.1C19.5833 16.1 20.3 16.4 20.9 17L27.25 23.35L30.1 20.5L35.7 26.2C36.1 26.6 36.3 27.0667 36.3 27.6C36.3 28.1333 36.1 28.6 35.7 29C35.3 29.4 34.8333 29.6 34.3 29.6C33.7667 29.6 33.3 29.4 32.9 29L14.5 47.4C14.1 47.8 13.6583 48.0917 13.175 48.275C12.6917 48.4583 12.2 48.55 11.7 48.55C11.2 48.55 10.7 48.45 10.2 48.25C9.7 48.05 9.25 47.7667 8.85 47.4Z" fill="#72A5A5"/>
</svg>
