<svg width="48" height="58" viewBox="0 0 48 58" fill="none" xmlns="http://www.w3.org/2000/svg">
<path d="M10 47C9.43333 47 8.95833 46.8083 8.575 46.425C8.19167 46.0417 8 45.5667 8 45V43C6.33333 43 4.91667 42.4167 3.75 41.25C2.58333 40.0833 2 38.6667 2 37V27C2 25.3333 2.58333 23.9167 3.75 22.75C4.91667 21.5833 6.33333 21 8 21V17C8 15.3333 8.58333 13.9167 9.75 12.75C10.9167 11.5833 12.3333 11 14 11H34C35.6667 11 37.0833 11.5833 38.25 12.75C39.4167 13.9167 40 15.3333 40 17V21C41.6667 21 43.0833 21.5833 44.25 22.75C45.4167 23.9167 46 25.3333 46 27V37C46 38.6667 45.4167 40.0833 44.25 41.25C43.0833 42.4167 41.6667 43 40 43V45C40 45.5667 39.8083 46.0417 39.425 46.425C39.0417 46.8083 38.5667 47 38 47C37.4333 47 36.9583 46.8083 36.575 46.425C36.1917 46.0417 36 45.5667 36 45V43H12V45C12 45.5667 11.8083 46.0417 11.425 46.425C11.0417 46.8083 10.5667 47 10 47ZM8 39H40C40.5667 39 41.0417 38.8083 41.425 38.425C41.8083 38.0417 42 37.5667 42 37V27C42 26.4333 41.8083 25.9583 41.425 25.575C41.0417 25.1917 40.5667 25 40 25C39.4333 25 38.9583 25.1917 38.575 25.575C38.1917 25.9583 38 26.4333 38 27V35H10V27C10 26.4333 9.80833 25.9583 9.425 25.575C9.04167 25.1917 8.56667 25 8 25C7.43333 25 6.95833 25.1917 6.575 25.575C6.19167 25.9583 6 26.4333 6 27V37C6 37.5667 6.19167 38.0417 6.575 38.425C6.95833 38.8083 7.43333 39 8 39ZM14 31H34V27C34 26.1 34.1833 25.2833 34.55 24.55C34.9167 23.8167 35.4 23.1667 36 22.6V17C36 16.4333 35.8083 15.9583 35.425 15.575C35.0417 15.1917 34.5667 15 34 15H14C13.4333 15 12.9583 15.1917 12.575 15.575C12.1917 15.9583 12 16.4333 12 17V22.6C12.6 23.1667 13.0833 23.8167 13.45 24.55C13.8167 25.2833 14 26.1 14 27V31Z" fill="#72A5A5"/>
</svg>
