<svg width="188" height="57" viewBox="0 0 188 57" fill="none" xmlns="http://www.w3.org/2000/svg">
<path d="M0 57V21.375C0 19.4156 0.695208 17.7383 2.08563 16.343C3.47604 14.9477 5.1475 14.25 7.1 14.25H17.75V7.125C17.75 5.16563 18.4452 3.48828 19.8356 2.09297C21.226 0.697655 22.8975 0 24.85 0H46.15C48.1025 0 49.774 0.697655 51.1644 2.09297C52.5548 3.48828 53.25 5.16563 53.25 7.125V14.25H63.9C65.8525 14.25 67.524 14.9477 68.9144 16.343C70.3048 17.7383 71 19.4156 71 21.375V57H0ZM21.3 39.1875V42.75H14.2V39.1875H7.1V49.875H63.9V39.1875H56.8V42.75H49.7V39.1875H21.3ZM7.1 21.375V32.0625H14.2V28.5H21.3V32.0625H49.7V28.5H56.8V32.0625H63.9V21.375H7.1ZM24.85 14.25H46.15V7.125H24.85V14.25Z" fill="#72A5A5"/>
<path d="M108.096 26.028H95.82V31.068H105.612V35.856H95.82V45H89.628V21.24H108.096V26.028ZM113.999 24.912C112.751 24.912 111.839 24.684 111.263 24.228C110.711 23.748 110.435 23.004 110.435 21.996C110.435 20.964 110.711 20.22 111.263 19.764C111.839 19.284 112.751 19.044 113.999 19.044C115.223 19.044 116.123 19.284 116.699 19.764C117.275 20.22 117.563 20.964 117.563 21.996C117.563 23.004 117.275 23.748 116.699 24.228C116.123 24.684 115.223 24.912 113.999 24.912ZM117.059 27V45H110.939V27H117.059ZM126.408 27L130.8 35.1L132.816 34.92L139.908 45H132.888L128.352 36.792H126.228L119.352 27H126.408ZM139.764 27L132.96 36.72L130.692 36.576L125.976 45H119.1L126.336 34.848L128.424 35.136L132.888 27H139.764ZM163.219 21.24V35.316C163.219 38.676 162.319 41.196 160.519 42.876C158.743 44.532 156.103 45.36 152.599 45.36C149.119 45.36 146.479 44.532 144.679 42.876C142.879 41.196 141.979 38.676 141.979 35.316V21.24H148.207V35.424C148.207 37.128 148.567 38.4 149.287 39.24C150.031 40.08 151.135 40.5 152.599 40.5C154.087 40.5 155.191 40.08 155.911 39.24C156.655 38.4 157.027 37.128 157.027 35.424V21.24H163.219ZM167.203 52.56V27H172.711L173.035 33.516L172.315 32.76C172.483 31.56 172.855 30.504 173.431 29.592C174.007 28.68 174.751 27.96 175.663 27.432C176.575 26.904 177.619 26.64 178.795 26.64C180.283 26.64 181.579 27.012 182.683 27.756C183.787 28.476 184.639 29.532 185.239 30.924C185.863 32.292 186.175 33.96 186.175 35.928C186.175 37.896 185.863 39.588 185.239 41.004C184.615 42.42 183.739 43.5 182.611 44.244C181.507 44.988 180.211 45.36 178.723 45.36C177.091 45.36 175.771 44.88 174.763 43.92C173.755 42.936 173.083 41.7 172.747 40.212L173.323 39.348V52.56H167.203ZM176.635 40.86C177.691 40.86 178.519 40.476 179.119 39.708C179.719 38.916 180.019 37.68 180.019 36C180.019 34.32 179.719 33.096 179.119 32.328C178.543 31.536 177.727 31.14 176.671 31.14C175.999 31.14 175.411 31.332 174.907 31.716C174.403 32.076 174.007 32.616 173.719 33.336C173.455 34.056 173.323 34.944 173.323 36C173.323 37.008 173.443 37.884 173.683 38.628C173.947 39.348 174.331 39.9 174.835 40.284C175.339 40.668 175.939 40.86 176.635 40.86Z" fill="#333333"/>
</svg>
